<?xml version="1.0" encoding="UTF-8"?>
<svg version="1.1" xmlns="http://www.w3.org/2000/svg" width="91" height="75">
<path d="M0 0 C2.14809101 -0.04115626 4.29685801 -0.05446464 6.4453125 -0.04296875 C8.05986328 -0.10967773 8.05986328 -0.10967773 9.70703125 -0.17773438 C17.42704489 -0.2015322 17.42704489 -0.2015322 20.56396484 2.46289062 C22.09873898 4.49664371 23.35564977 6.53269481 24.5703125 8.76953125 C25.40175781 9.91808594 25.40175781 9.91808594 26.25 11.08984375 C26.84167969 11.98316406 26.84167969 11.98316406 27.4453125 12.89453125 C27.85523437 13.49523438 28.26515625 14.0959375 28.6875 14.71484375 C29.98141336 17.72634122 30.0180084 19.48900096 29.5703125 22.76953125 C28.13162041 25.94022598 26.30584865 28.83123314 24.4453125 31.76953125 C23.64637573 33.06383057 23.64637573 33.06383057 22.83129883 34.38427734 C21.09270181 37.18908302 19.33319067 39.97993229 17.5703125 42.76953125 C16.96654785 43.7327832 16.3627832 44.69603516 15.74072266 45.68847656 C11.73339546 52.08104153 7.71014722 58.46178425 3.5703125 64.76953125 C2.96525879 65.70506836 2.36020508 66.64060547 1.73681641 67.60449219 C1.13144043 68.51231445 0.52606445 69.42013672 -0.09765625 70.35546875 C-0.64059326 71.17837402 -1.18353027 72.0012793 -1.74291992 72.84912109 C-3.67366483 75.0473031 -4.56828548 75.44005517 -7.4296875 75.76953125 C-10.25417678 75.89014003 -13.04312237 75.95461958 -15.8671875 75.95703125 C-16.61806641 75.96927734 -17.36894531 75.98152344 -18.14257812 75.99414062 C-25.89128636 76.01458577 -25.89128636 76.01458577 -29.4296875 73.76953125 C-31.3125608 71.52504403 -32.77350321 69.11129621 -34.2421875 66.58203125 C-34.85223633 65.61040039 -34.85223633 65.61040039 -35.47460938 64.61914062 C-38.09413519 60.21217367 -39.35029926 56.99007355 -38.4296875 51.76953125 C-36.70846225 48.25016095 -34.56583899 45.06891867 -32.3671875 41.83203125 C-31.08578354 39.88767756 -29.80589115 37.94232702 -28.52734375 35.99609375 C-27.85719238 34.98450195 -27.18704102 33.97291016 -26.49658203 32.93066406 C-22.34128276 26.57550047 -18.39044174 20.09031397 -14.40600586 13.62719727 C-13.51667358 12.19525024 -13.51667358 12.19525024 -12.609375 10.734375 C-12.09101074 9.89511475 -11.57264648 9.05585449 -11.03857422 8.19116211 C-5.69541662 0.14885858 -5.69541662 0.14885858 0 0 Z M17.5703125 5.76953125 C15.98179386 8.08010381 14.45329939 10.40669998 12.9453125 12.76953125 C12.46819824 13.51195068 11.99108398 14.25437012 11.49951172 15.01928711 C5.31735873 24.67313788 -0.77239588 34.38960792 -6.78027344 44.15283203 C-7.83273005 45.82249307 -8.92156824 47.47012895 -10.05566406 49.08544922 C-11.34811643 50.95247051 -12.51699476 52.69075344 -13.4296875 54.76953125 C-13.09903969 57.51294783 -13.09903969 57.51294783 -11.4296875 59.76953125 C-10.93210937 60.65253906 -10.43453125 61.53554688 -9.921875 62.4453125 C-9.12136719 63.75048828 -9.12136719 63.75048828 -8.3046875 65.08203125 C-7.76585937 65.96503906 -7.22703125 66.84804687 -6.671875 67.7578125 C-6.26195312 68.42167969 -5.85203125 69.08554688 -5.4296875 69.76953125 C-0.86264121 65.66497066 1.95788403 61.12870418 5.0078125 55.83203125 C10.15461604 47.04876543 15.54499449 38.45235614 21.11303711 29.92993164 C21.96393921 28.61303345 21.96393921 28.61303345 22.83203125 27.26953125 C23.33694092 26.49609375 23.84185059 25.72265625 24.36206055 24.92578125 C25.55716213 22.79299943 26.28272727 21.19474089 26.5703125 18.76953125 C25.36734801 16.36360227 24.16152422 14.250723 22.6953125 12.01953125 C22.31761719 11.41753906 21.93992188 10.81554687 21.55078125 10.1953125 C20.5950148 8.69533739 19.58687223 7.22899045 18.5703125 5.76953125 C18.2403125 5.76953125 17.9103125 5.76953125 17.5703125 5.76953125 Z " fill="#1270B9" transform="translate(38.4296875,-0.76953125)"/>
<path d="M0 0 C6.09060521 1.65571105 8.94690183 6.30944881 12.203125 11.4387207 C12.79609375 12.3565332 13.3890625 13.2743457 14 14.2199707 C15.47354266 16.97692149 16.29212019 18.82108217 16.453125 21.9387207 C15.37890625 24.62231445 15.37890625 24.62231445 13.765625 27.3762207 C12.93224609 28.80901367 12.93224609 28.80901367 12.08203125 30.27075195 C11.54449219 31.15118164 11.00695312 32.03161133 10.453125 32.9387207 C10.04964844 33.60258789 9.64617187 34.26645508 9.23046875 34.95043945 C6.80170404 38.76443118 6.80170404 38.76443118 4.453125 39.9387207 C-16.02896021 42.34292378 -16.02896021 42.34292378 -22.65625 37.8137207 C-24.43017988 35.20589216 -25.5973109 32.93858739 -26.546875 29.9387207 C-26.876875 28.9487207 -27.206875 27.9587207 -27.546875 26.9387207 C-25.92122273 22.97015393 -23.7716548 19.30042458 -21.61035156 15.60400391 C-20.90601393 14.37691064 -20.22510363 13.13604592 -19.56933594 11.88232422 C-14.75232312 2.68455176 -10.41045345 -0.47861846 0 0 Z M3.453125 6.9387207 C2.02577508 8.79546012 0.66131671 10.70075741 -0.671875 12.6262207 C-1.41695312 13.68196289 -2.16203125 14.73770508 -2.9296875 15.82543945 C-4.7494844 18.72848408 -4.7494844 18.72848408 -4.51171875 21.4699707 C-3.32581621 24.50434481 -1.7837121 27.03585744 0.015625 29.7512207 C0.65628906 30.72704102 1.29695313 31.70286133 1.95703125 32.70825195 C2.45074219 33.44430664 2.94445312 34.18036133 3.453125 34.9387207 C6.02137862 32.46395811 8.28977077 30.03645607 10.265625 27.0637207 C10.70519531 26.42692383 11.14476562 25.79012695 11.59765625 25.1340332 C12.81331259 22.0144037 12.34303261 20.14076271 11.453125 16.9387207 C9.90665614 14.12925889 9.90665614 14.12925889 7.953125 11.5637207 C7.3240625 10.68973633 6.695 9.81575195 6.046875 8.9152832 C5.5209375 8.26301758 4.995 7.61075195 4.453125 6.9387207 C4.123125 6.9387207 3.793125 6.9387207 3.453125 6.9387207 Z " fill="#1270B8" transform="translate(74.546875,34.061279296875)"/>
<path d="M0 0 C5.26322968 4.64402619 10.23854716 10.70540601 11.48828125 17.75390625 C10.76822113 22.54086591 8.43871445 25.95119003 5.875 30 C5.07606323 31.29429932 5.07606323 31.29429932 4.26098633 32.61474609 C2.52238931 35.41955177 0.76287817 38.21040104 -1 41 C-1.60376465 41.96325195 -2.2075293 42.92650391 -2.82958984 43.91894531 C-6.83696114 50.31158064 -10.86252562 56.69063727 -15 63 C-15.89996704 64.40113037 -15.89996704 64.40113037 -16.81811523 65.83056641 C-17.41954346 66.73726074 -18.02097168 67.64395508 -18.640625 68.578125 C-19.44741699 69.81030762 -19.44741699 69.81030762 -20.27050781 71.06738281 C-22.31087032 73.34738134 -23.43781678 73.75086008 -26.4375 74.125 C-27.613125 74.08375 -28.78875 74.0425 -30 74 C-26.93882432 71.37613513 -26.26826873 71 -22 71 C-22 70.34 -22 69.68 -22 69 C-23.98 69 -25.96 69 -28 69 C-28 66.36 -28 63.72 -28 61 C-27.38125 61.825 -26.7625 62.65 -26.125 63.5 C-25.073125 64.7375 -25.073125 64.7375 -24 66 C-23.34 66 -22.68 66 -22 66 C-20.38163726 63.81899429 -20.38163726 63.81899429 -18.7265625 60.98046875 C-18.07179932 59.90361816 -17.41703613 58.82676758 -16.74243164 57.71728516 C-16.03648617 56.54077105 -15.33067841 55.36417431 -14.625 54.1875 C-13.18114192 51.80171027 -11.73290382 49.41858712 -10.28515625 47.03515625 C-9.92330734 46.43773621 -9.56145844 45.84031616 -9.18864441 45.22479248 C-5.41730461 39.00961009 -1.50753438 32.88371969 2.45654297 26.78979492 C2.91303223 26.07799072 3.36952148 25.36618652 3.83984375 24.6328125 C4.43333618 23.71846436 4.43333618 23.71846436 5.03881836 22.78564453 C6.09285954 20.8274893 6.68635296 19.20331485 7 17 C5.39641077 14.10742216 3.49736532 11.53449976 1.56640625 8.8515625 C-0.211769 5.61448536 -0.30566282 3.63577878 0 0 Z " fill="#256DA4" transform="translate(57,1)"/>
<path d="M0 0 C2.88962331 3.22304139 5.17084128 6.72682913 7.375 10.4375 C7.91898438 11.34371094 8.46296875 12.24992187 9.0234375 13.18359375 C10.32748105 16.94445535 9.64671166 18.41544533 8 22 C6.71390801 24.32836238 5.41324937 26.56717446 4 28.8125 C3.46632813 29.68938477 3.46632813 29.68938477 2.921875 30.58398438 C0.25982143 34.87008929 0.25982143 34.87008929 -2 36 C-5.97250402 36.32157784 -9.95358669 36.32430822 -13.9375 36.375 C-15.60329102 36.43107422 -15.60329102 36.43107422 -17.30273438 36.48828125 C-18.36685547 36.49988281 -19.43097656 36.51148438 -20.52734375 36.5234375 C-21.99288696 36.5531665 -21.99288696 36.5531665 -23.48803711 36.58349609 C-26 36 -26 36 -27.84204102 33.46728516 C-28.22416748 32.65308105 -28.60629395 31.83887695 -29 31 C-28.34 31 -27.68 31 -27 31 C-27 31.66 -27 32.32 -27 33 C-24.29283758 33.90238747 -22.76223232 34.11851302 -19.98828125 34.09765625 C-19.23095703 34.09443359 -18.47363281 34.09121094 -17.69335938 34.08789062 C-16.90767578 34.07951172 -16.12199219 34.07113281 -15.3125 34.0625 C-14.51521484 34.05798828 -13.71792969 34.05347656 -12.89648438 34.04882812 C-10.93095743 34.0370585 -8.96546915 34.01912348 -7 34 C-6.67 32.35 -6.34 30.7 -6 29 C-6.66 29 -7.32 29 -8 29 C-8.33 26.69 -8.66 24.38 -9 22 C-6.3895329 24.52045099 -4.14344675 27.07655973 -2 30 C-0.79157828 28.30640147 0.39103622 26.59436954 1.5625 24.875 C2.22378906 23.92367187 2.88507813 22.97234375 3.56640625 21.9921875 C5.30258549 18.36844555 5.1575489 16.80190507 4 13 C2.82435653 10.83123274 2.82435653 10.83123274 1.375 8.9375 C-1.02240991 5.35855856 -1.02240991 5.35855856 -0.8125 2 C-0.544375 1.34 -0.27625 0.68 0 0 Z " fill="#246EA6" transform="translate(81,38)"/>
<path d="M0 0 C0.33 0.66 0.66 1.32 1 2 C0.67 2.99 0.34 3.98 0 5 C0.66 5.33 1.32 5.66 2 6 C2 6.66 2 7.32 2 8 C0.37373596 9.38232443 -1.2925002 10.71937515 -3 12 C-3.66 11.67 -4.32 11.34 -5 11 C-5 11.66 -5 12.32 -5 13 C-4.401875 13.0825 -3.80375 13.165 -3.1875 13.25 C-0.4033704 14.20455872 0.43311142 15.57132271 2 18 C1.01 18 0.02 18 -1 18 C-0.30058404 21.14737182 0.76078698 24.02588876 2 27 C2.66 27 3.32 27 4 27 C4.33 28.32 4.66 29.64 5 31 C4.34 31 3.68 31 3 31 C1.34264449 28.67551402 -0.15407577 26.37601658 -1.625 23.9375 C-2.25535156 22.95233398 -2.25535156 22.95233398 -2.8984375 21.94726562 C-5.59241057 17.50833272 -6.74063354 14.32251898 -6 9 C-4.6875 6.34765625 -4.6875 6.34765625 -3 4.0625 C-2.443125 3.29035156 -1.88625 2.51820312 -1.3125 1.72265625 C-0.879375 1.15417969 -0.44625 0.58570313 0 0 Z " fill="#1E6BAD" transform="translate(6,42)"/>
<path d="M0 0 C0.33 0 0.66 0 1 0 C1.1875 2.375 1.1875 2.375 1 5 C0.01 5.66 -0.98 6.32 -2 7 C-2.71746807 8.9239754 -2.71746807 8.9239754 -3.0625 11.0625 C-3.47265625 13.22265625 -3.47265625 13.22265625 -4 15 C-4.99 15.495 -4.99 15.495 -6 16 C-6.33 16.99 -6.66 17.98 -7 19 C-7.99 19.33 -8.98 19.66 -10 20 C-11.37195574 21.29355827 -12.71182656 22.62298702 -14 24 C-12.70363929 20.53166989 -11.18997707 17.48470086 -9.21484375 14.35546875 C-8.68439453 13.51435547 -8.15394531 12.67324219 -7.60742188 11.80664062 C-7.05634766 10.94232422 -6.50527344 10.07800781 -5.9375 9.1875 C-5.38255859 8.30384766 -4.82761719 7.42019531 -4.25585938 6.50976562 C-1.19177388 1.6766466 -1.19177388 1.6766466 0 0 Z " fill="#236EA8" transform="translate(21,18)"/>
<path d="M0 0 C1.15185547 3.70507812 1.15185547 3.70507812 -0.21484375 6.359375 C-0.78332031 7.14828125 -1.35179687 7.9371875 -1.9375 8.75 C-2.50339844 9.54921875 -3.06929687 10.3484375 -3.65234375 11.171875 C-4.09707031 11.77515625 -4.54179688 12.3784375 -5 13 C-4.34 13 -3.68 13 -3 13 C-2.67 12.34 -2.34 11.68 -2 11 C-1.34 12.32 -0.68 13.64 0 15 C-0.61875 15.2475 -1.2375 15.495 -1.875 15.75 C-4.35068687 17.20628639 -4.95125002 18.37812506 -6 21 C-7.76953125 18.4921875 -7.76953125 18.4921875 -9 15 C-8.07428824 12.04773008 -6.42349316 9.66619849 -4.6875 7.125 C-4.24470703 6.43664063 -3.80191406 5.74828125 -3.34570312 5.0390625 C-2.25185859 3.34536774 -1.1286711 1.67068829 0 0 Z " fill="#1F6EA9" transform="translate(56,46)"/>
<path d="M0 0 C1.34410287 0.00530218 2.68831526 0.03747464 4.03125 0.09375 C4.70800781 0.09117188 5.38476562 0.08859375 6.08203125 0.0859375 C10.41831386 0.17146576 11.32933481 0.39183481 14.53125 3.59375 C8.92125 3.26375 3.31125 2.93375 -2.46875 2.59375 C-2.46875 3.25375 -2.46875 3.91375 -2.46875 4.59375 C-3.12875 4.59375 -3.78875 4.59375 -4.46875 4.59375 C-4.79875 6.57375 -5.12875 8.55375 -5.46875 10.59375 C-6.45875 10.59375 -7.44875 10.59375 -8.46875 10.59375 C-7.84373605 8.91102014 -7.16697617 7.24744357 -6.46875 5.59375 C-6.10394531 4.72105469 -5.73914062 3.84835938 -5.36328125 2.94921875 C-3.46875 0.59375 -3.46875 0.59375 0 0 Z " fill="#256BA0" transform="translate(66.46875,34.40625)"/>
<path d="M0 0 C0.66 0 1.32 0 2 0 C2 0.66 2 1.32 2 2 C2.99 2.33 3.98 2.66 5 3 C-0.94 12.405 -0.94 12.405 -7 22 C-8 20 -8 20 -7.0625 16.875 C-6.711875 15.92625 -6.36125 14.9775 -6 14 C-5.34 14 -4.68 14 -4 14 C-3.71125 13.401875 -3.4225 12.80375 -3.125 12.1875 C-2 10 -2 10 0 7 C0.07905064 4.66800612 0.08798769 2.33167378 0 0 Z " fill="#276EA0" transform="translate(34,30)"/>
<path d="M0 0 C1.2065625 0.0309375 1.2065625 0.0309375 2.4375 0.0625 C1.7775 1.7125 1.1175 3.3625 0.4375 5.0625 C-1.2125 5.0625 -2.8625 5.0625 -4.5625 5.0625 C-4.871875 5.68125 -5.18125 6.3 -5.5 6.9375 C-6.1875 8.3125 -6.875 9.6875 -7.5625 11.0625 C-8.2225 10.7325 -8.8825 10.4025 -9.5625 10.0625 C-8.58473933 8.58240357 -7.6052506 7.10344856 -6.625 5.625 C-6.07972656 4.80128906 -5.53445312 3.97757812 -4.97265625 3.12890625 C-2.88545574 0.07037697 -2.88545574 0.07037697 0 0 Z " fill="#206FAC" transform="translate(35.5625,-0.0625)"/>
<path d="M0 0 C0.66 0 1.32 0 2 0 C2 0.66 2 1.32 2 2 C4.9195043 2.9731681 7.05444951 3.1929546 10.10546875 3.31640625 C11.57983398 3.37924805 11.57983398 3.37924805 13.08398438 3.44335938 C14.62022461 3.50233398 14.62022461 3.50233398 16.1875 3.5625 C17.74114258 3.62727539 17.74114258 3.62727539 19.32617188 3.69335938 C21.8839819 3.79944366 24.44188845 3.90150146 27 4 C27 4.33 27 4.66 27 5 C23.06288563 5.14492719 19.12645375 5.23394537 15.1875 5.3125 C14.06794922 5.35439453 12.94839844 5.39628906 11.79492188 5.43945312 C10.72177734 5.45556641 9.64863281 5.47167969 8.54296875 5.48828125 C7.55321045 5.51446533 6.56345215 5.54064941 5.54370117 5.56762695 C3 5 3 5 1.15356445 2.46948242 C0.77288818 1.65455322 0.39221191 0.83962402 0 0 Z " fill="#266BA0" transform="translate(52,69)"/>
<path d="M0 0 C0.99 0.66 1.98 1.32 3 2 C1.69593116 4.01920337 0.36176581 6.01924973 -1 8 C-1.33 8 -1.66 8 -2 8 C-2.20086443 4.28400809 -2.1519437 3.22791555 0 0 Z " fill="#226CA5" transform="translate(53,4)"/>
<path d="M0 0 C0.66 0 1.32 0 2 0 C2 0.66 2 1.32 2 2 C2.99 2.33 3.98 2.66 5 3 C3.68 4.32 2.36 5.64 1 7 C0.67 4.69 0.34 2.38 0 0 Z " fill="#1E6EAB" transform="translate(34,30)"/>
<path d="M0 0 C0.33 0 0.66 0 1 0 C1.25 2.25 1.25 2.25 1 5 C-1 7.3125 -1 7.3125 -3 9 C-3.66 8.67 -4.32 8.34 -5 8 C-4.19185349 6.66402348 -3.37836819 5.331275 -2.5625 4 C-2.11003906 3.2575 -1.65757813 2.515 -1.19140625 1.75 C-0.79824219 1.1725 -0.40507812 0.595 0 0 Z " fill="#286EA3" transform="translate(21,18)"/>
<path d="M0 0 C2.52588702 2.36292656 3.88820837 3.66462511 5 7 C3.35 6.67 1.7 6.34 0 6 C-1.125 2.25 -1.125 2.25 0 0 Z " fill="#196CAC" transform="translate(11,68)"/>
</svg>
